# xmcd
#
# Track frame offsets:
#	150
#	10598
#	21980
#	33028
#	50738
#	63640
#	77855
#	90080
#	104563
#	117515
#	129775
#	144943
#	159810
#	175775
#	186195
#	197953
#
# Disc length: 2784
#
# Revision: 1
# Processed by: cddbd v1.5.1PL0 Copyright (c) Steve Scherf et al.
# Submitted via: FreeRIP 2.92 
# Normalized: r0:DSETVAR1,TDELIM( - ),TSWAP
#
DISCID=c80ade10
DTITLE=Various Artist - Country Collection Volume 3
DYEAR=1900
DGENRE=Country
TTITLE0=Willie Nelson - Blue Eyes Crying In The Rain
TTITLE1=Lynn Anderson - Country Girl
TTITLE2=Johnny Cash - Forgot More Than You'll Ever Know
TTITLE3=Barbara Fairchild - Mississippi
TTITLE4=Johnny Paycheck - Barstool Moutain
TTITLE5=Johnny Duncan With Janie Fricke - Come A Little Bit Closer
TTITLE6=Larry Gatlin - Kiss It All Goodbye
TTITLE7=Tanye Tucker - Almost Persuaded
TTITLE8=Johnny Cash - Man In Black
TTITLE9=Tanye Tucker - You Are So Beautiful
TTITLE10=Johnny Duncan - The Cowboy And The Lady
TTITLE11=Barbara Fairchild - For All The Right Reasons
TTITLE12=Bobby Bare - The Ganbler
TTITLE13=Moe Bandy and Joe Stampley - Alive And Well
TTITLE14=Lynn Anderson - This Country Girl Is Woman Wise
TTITLE15=Willie Nelson - Time Of The Preacher
EXTD=
EXTT0=
EXTT1=
EXTT2=
EXTT3=
EXTT4=
EXTT5=
EXTT6=
EXTT7=
EXTT8=
EXTT9=
EXTT10=
EXTT11=
EXTT12=
EXTT13=
EXTT14=
EXTT15=
PLAYORDER=
